<svg xmlns="http://www.w3.org/2000/svg" viewBox="0 0 207.89 205.19"><defs><style>.cls-1{fill:#f2b4ae;}.cls-2{fill:#aad9d4;}</style></defs><title>Alt Logo</title><g id="Layer_2" data-name="Layer 2"><g id="Layer_1-2" data-name="Layer 1"><path class="cls-1" d="M28.76,122.93c.06.29.14.67.24,1.13s.17.92.25,1.4a12.05,12.05,0,0,1,.16,1.26l-1.76.19L27,124.18a2.65,2.65,0,0,0-.94-1.72,2.37,2.37,0,0,0-1.84-.15L8.82,125.79l-.52-2.32L24,119.93a5.39,5.39,0,0,1,2.2-.09,2.83,2.83,0,0,1,1.6.93A4.83,4.83,0,0,1,28.76,122.93Zm-5.68,4.12-1.83.42-2-9,1.69-.38.71,2.51Z" transform="translate(-8.3)"/><path class="cls-1" d="M24.53,131.33l-2.35,1.17-.32.35-10,3.59-.8-2.24,12.83-4.61Zm2.57,6.19-2.2.49-.27-.74a6.29,6.29,0,0,0-1.27-2.1c-.58-.65-1.35-1.41-2.3-2.3l1.33-.69a14.63,14.63,0,0,1,2.85,2.21,7.05,7.05,0,0,1,1.65,2.55Z" transform="translate(-8.3)"/><path class="cls-1" d="M30.63,144.52a8.54,8.54,0,0,1,1.16,3.65A4.05,4.05,0,0,1,30.74,151a11.84,11.84,0,0,1-3.4,2.52,11.82,11.82,0,0,1-4,1.44,4.13,4.13,0,0,1-3-.71,8.63,8.63,0,0,1-2.39-3,8.35,8.35,0,0,1-1.15-3.63,4.12,4.12,0,0,1,1-2.88,11.64,11.64,0,0,1,3.39-2.53,11.55,11.55,0,0,1,4-1.42,4.15,4.15,0,0,1,3,.72A8.56,8.56,0,0,1,30.63,144.52Zm-1.78,1a4.88,4.88,0,0,0-1.51-1.85,2.64,2.64,0,0,0-2-.32,10.45,10.45,0,0,0-2.91,1.15,10.32,10.32,0,0,0-2.57,1.79,2.64,2.64,0,0,0-.82,1.82,5,5,0,0,0,.7,2.28,5.07,5.07,0,0,0,1.52,1.85,2.61,2.61,0,0,0,2,.34,10.45,10.45,0,0,0,2.91-1.15,10.59,10.59,0,0,0,2.57-1.79,2.63,2.63,0,0,0,.81-1.83A5,5,0,0,0,28.85,145.48Z" transform="translate(-8.3)"/><path class="cls-1" d="M36.29,154.9l-1.85,1.84-.15.47-8,7-1.57-1.8L35,153.43Zm4,4.09a3.6,3.6,0,0,1,1,2.62,4,4,0,0,1-1.5,2.57l-7.71,6.71-1.5-1.73,7.2-6.27a2.64,2.64,0,0,0,1.05-1.62,2.15,2.15,0,0,0-.64-1.57,4,4,0,0,0-1.06-.87,6.65,6.65,0,0,0-1.5-.62c-.6-.18-1.37-.38-2.29-.59l1.15-1.23a12.32,12.32,0,0,1,3.39.88A6.77,6.77,0,0,1,40.3,159Zm5.86,6.74a3.57,3.57,0,0,1,1.06,2.66,3.85,3.85,0,0,1-1.5,2.55L38,177.65l-1.55-1.78,7.2-6.27a2.94,2.94,0,0,0,1-1.58,2,2,0,0,0-.63-1.6,4,4,0,0,0-1.09-.89,7.09,7.09,0,0,0-1.5-.6c-.6-.17-1.35-.37-2.25-.57l1.18-1.21a12.15,12.15,0,0,1,3.38.88A6.47,6.47,0,0,1,46.16,165.73Z" transform="translate(-8.3)"/><path class="cls-1" d="M61.25,173l-7.82,11.51a1.55,1.55,0,0,0,.51,2.55l1.71,1.16-.79,1.67q-.44-.17-1-.42t-1-.54c-.33-.19-.58-.35-.77-.47a3.42,3.42,0,0,1-1.62-2.25,3.87,3.87,0,0,1,.8-2.78l8-11.77Zm1.33,5.77-1.06,1.56-7.6-5.16,1-1.44,2.3,1.4Z" transform="translate(-8.3)"/><path class="cls-1" d="M69.61,175.91,67.3,180.8q-.39.82-.81,1.53a10,10,0,0,1-.81,1.2l0,.49-4.58,9.57-2.15-1,8.46-17.68Zm2.9,7.63q3.33,1.59,1.71,5l-4.41,9.21-2.17-1,4.12-8.61a3,3,0,0,0,.43-1.89,1.86,1.86,0,0,0-1.13-1.11,5.83,5.83,0,0,0-2.53-.56,25,25,0,0,0-3.44.25l.64-1.59a16,16,0,0,1,3.67-.35A7.48,7.48,0,0,1,72.51,183.54Z" transform="translate(-8.3)"/><path class="cls-1" d="M85,188a7.17,7.17,0,0,1,4,2.27,4,4,0,0,1,.44,3.58A4.45,4.45,0,0,1,88,196.37a2.94,2.94,0,0,1-2.67.32l-7.67-2.13.5-1.78,7.07,2a1.18,1.18,0,0,0,1.33-.28,3.57,3.57,0,0,0,.64-1.26,2.26,2.26,0,0,0-.26-2A4.49,4.49,0,0,0,84.58,190a5.39,5.39,0,0,0-2.37-.21,2.45,2.45,0,0,0-1.56,1.14A12.84,12.84,0,0,0,79,197a2.58,2.58,0,0,0,.92,1.88A6.22,6.22,0,0,0,82.26,200c.7.2,1.48.38,2.34.55s1.62.3,2.31.4l-.18,1.6a8.28,8.28,0,0,1-1.64,0c-.63-.06-1.27-.15-1.93-.27s-1.23-.26-1.73-.4a8.42,8.42,0,0,1-3.45-1.7,4.29,4.29,0,0,1-1.4-2.77,11,11,0,0,1,.49-4.21,11.18,11.18,0,0,1,1.76-3.91,4.12,4.12,0,0,1,2.57-1.58A8.25,8.25,0,0,1,85,188Z" transform="translate(-8.3)"/><path class="cls-1" d="M102.87,185.31l-1.15,15.8a1.72,1.72,0,0,0,.39,1.39,1.92,1.92,0,0,0,1.35.56l1.31.09.15,1.84a3.25,3.25,0,0,1-.73.14,7.46,7.46,0,0,1-1,.06c-.33,0-.61,0-.83,0a3.32,3.32,0,0,1-2.35-1.07,3.44,3.44,0,0,1-.73-2.64l1.17-16.33Z" transform="translate(-8.3)"/><path class="cls-1" d="M109.92,185.64a.64.64,0,0,1,.74.72l0,1.59a.64.64,0,0,1-.72.74l-1.12,0a.65.65,0,0,1-.74-.72l0-1.59a.64.64,0,0,1,.71-.74Zm.71,5.79.22,13.63-2.35,0-.22-13.64Z" transform="translate(-8.3)"/><path class="cls-1" d="M122.76,190.42l.21,1.86-9.13,1-.19-1.72,2.65-.43ZM118,186.88l1.51,13.84a1.91,1.91,0,0,0,.57,1.34,2,2,0,0,0,1.47.26l2.06-.22.47,1.78a9.45,9.45,0,0,1-1,.3c-.39.1-.76.19-1.13.25s-.67.12-.89.14a3.36,3.36,0,0,1-2.69-.66,3.85,3.85,0,0,1-1.19-2.63l-1.55-14.14Z" transform="translate(-8.3)"/><path class="cls-1" d="M133,188.12l.43,1.83-9,2.07-.39-1.69,2.58-.74Zm-5.14-3L131,198.73a2,2,0,0,0,.72,1.27,2,2,0,0,0,1.49.08l2-.47.68,1.71a7.36,7.36,0,0,1-1,.43c-.37.14-.73.27-1.09.38l-.87.25a3.45,3.45,0,0,1-2.75-.34,3.9,3.9,0,0,1-1.49-2.47l-3.22-13.86Z" transform="translate(-8.3)"/><path class="cls-1" d="M136,180.78l5.18,15a1.76,1.76,0,0,0,.91,1.12,1.89,1.89,0,0,0,1.46,0l1.24-.43.87,1.63a4.41,4.41,0,0,1-.61.42c-.28.15-.56.3-.86.43s-.56.24-.77.31a3.28,3.28,0,0,1-2.58-.05A3.44,3.44,0,0,1,139.1,197l-5.38-15.47Z" transform="translate(-8.3)"/><path class="cls-1" d="M148.17,181.67a7.16,7.16,0,0,1,4.5-1A4,4,0,0,1,155.4,183a4.48,4.48,0,0,1,.6,2.88,2.92,2.92,0,0,1-1.77,2l-7.1,3.57-.83-1.65,6.55-3.29a1.18,1.18,0,0,0,.8-1.1,3.48,3.48,0,0,0-.38-1.37,2.25,2.25,0,0,0-1.54-1.32,4.44,4.44,0,0,0-2.55.65,5.32,5.32,0,0,0-1.9,1.44,2.41,2.41,0,0,0-.39,1.89,10.2,10.2,0,0,0,1,2.85,10,10,0,0,0,1.89,2.78,2.57,2.57,0,0,0,1.94.78,6.37,6.37,0,0,0,2.44-.75q1-.49,2.1-1.17t2-1.26l.94,1.31a8.14,8.14,0,0,1-1.23,1.09c-.5.38-1,.74-1.61,1.09s-1.08.64-1.55.88a8.48,8.48,0,0,1-3.7,1.05,4.33,4.33,0,0,1-2.89-1.11,11.12,11.12,0,0,1-2.47-3.45,11.35,11.35,0,0,1-1.32-4.08,4.13,4.13,0,0,1,.84-2.9A8.51,8.51,0,0,1,148.17,181.67Z" transform="translate(-8.3)"/><path class="cls-1" d="M159.86,174.57c.48-.35,1-.71,1.57-1.08l1.71-1.06c.57-.34,1.1-.64,1.61-.89l.86,1.52-2.15,1.44c-.72.48-1.43,1-2.12,1.49a14.52,14.52,0,0,0-1.58,1.21,1.58,1.58,0,0,0-.58,1,1.83,1.83,0,0,0,.46,1.18q.63.87,1.23.84a4.43,4.43,0,0,0,1.53-.42l3.74-1.61a4.8,4.8,0,0,1,2.65-.43,3.61,3.61,0,0,1,2.12,1.61,4.15,4.15,0,0,1,1,2.41,3.11,3.11,0,0,1-.89,2,16.07,16.07,0,0,1-2.49,2.15c-.39.29-1,.7-1.79,1.23a25.47,25.47,0,0,1-2.77,1.6l-.88-1.51,1.19-.78c.43-.27.86-.57,1.31-.89l1.37-1a15.91,15.91,0,0,0,1.87-1.53,2,2,0,0,0,.67-1.16,1.76,1.76,0,0,0-.42-1.2,1.38,1.38,0,0,0-1.26-.74,5.5,5.5,0,0,0-1.6.46l-3.7,1.58a5.35,5.35,0,0,1-1.89.45,2.64,2.64,0,0,1-1.5-.39,5.08,5.08,0,0,1-1.34-1.33,4.23,4.23,0,0,1-1-2.28,2.79,2.79,0,0,1,.76-1.9A12.83,12.83,0,0,1,159.86,174.57Z" transform="translate(-8.3)"/><path class="cls-1" d="M167.16,163.66l9.64,10a1.88,1.88,0,0,0,1.28.72,2,2,0,0,0,1.32-.68l1.49-1.44,1.46,1.12a8.3,8.3,0,0,1-.61.86c-.24.31-.49.61-.74.88s-.45.5-.61.66a3.39,3.39,0,0,1-2.54,1.11,3.84,3.84,0,0,1-2.55-1.35l-9.86-10.26Zm5.92-.1,1.3,1.35-6.62,6.37-1.2-1.25,1.84-2Z" transform="translate(-8.3)"/><path class="cls-1" d="M177.22,152l11.29,8.12a1.87,1.87,0,0,0,1.38.48,2,2,0,0,0,1.18-.91l1.21-1.68,1.64.83a8,8,0,0,1-.45,1c-.18.35-.37.68-.56,1s-.36.57-.49.75a3.38,3.38,0,0,1-2.3,1.56,3.86,3.86,0,0,1-2.75-.87l-11.54-8.31Zm5.8-1.17,1.53,1.09-5.37,7.46-1.41-1,1.46-2.26Z" transform="translate(-8.3)"/><path class="cls-1" d="M180.32,143.7l4.82,2.44c.55.28,1.06.57,1.52.86a9.39,9.39,0,0,1,1.17.83l.49,0,9.44,4.84-1.08,2.12-17.44-8.94ZM188,141q1.68-3.28,5-1.58l9.09,4.67-1.09,2.14-8.5-4.36a3.06,3.06,0,0,0-1.88-.47,1.84,1.84,0,0,0-1.14,1.09,5.79,5.79,0,0,0-.63,2.52,26.07,26.07,0,0,0,.15,3.44l-1.57-.68a16.35,16.35,0,0,1-.25-3.68A7.55,7.55,0,0,1,188,141Z" transform="translate(-8.3)"/><path class="cls-1" d="M186.52,130.31a.64.64,0,0,1,.93-.44l1.5.53a.65.65,0,0,1,.44.94l-.37,1a.65.65,0,0,1-.94.44l-1.5-.54a.65.65,0,0,1-.44-.93Zm5.66,1.37,12.84,4.6-.79,2.21-12.84-4.6Z" transform="translate(-8.3)"/><path class="cls-1" d="M194.09,125.67l2.59.36.45-.08,10.37,2.25-.51,2.33-13.32-2.89Zm1-6.21c.52-2.4,2-3.34,4.45-2.81l10,2.17-.51,2.33-9.33-2a3,3,0,0,0-1.94,0,1.93,1.93,0,0,0-.83,1.37,5.74,5.74,0,0,0,.07,2.6c.22.9.56,2,1,3.28l-1.69-.25a15.31,15.31,0,0,1-1.2-3.5A7.62,7.62,0,0,1,195.1,119.46Z" transform="translate(-8.3)"/><path class="cls-1" d="M196.54,106.46a10.84,10.84,0,0,1,.58-3.44,3.22,3.22,0,0,1,1.47-1.77,4.94,4.94,0,0,1,2.51-.45,4.87,4.87,0,0,1,2.43.63,3.24,3.24,0,0,1,1.35,1.89,10.52,10.52,0,0,1,.34,3.48,10.32,10.32,0,0,1-.59,3.44,3.27,3.27,0,0,1-1.48,1.77,4.93,4.93,0,0,1-2.45.46,5.18,5.18,0,0,1-2.49-.64,3.19,3.19,0,0,1-1.34-1.89A10.83,10.83,0,0,1,196.54,106.46Zm.61-7.41,1.31.19.16,3.48-1.63.92Zm1.21,7.5a5.13,5.13,0,0,0,.47,2.86,2.23,2.23,0,0,0,1.92.87,2.27,2.27,0,0,0,2-.72,7.24,7.24,0,0,0,.21-5.7,2.8,2.8,0,0,0-3.88-.14A5.1,5.1,0,0,0,198.36,106.55Zm5.82,4,.25-1.36a2.09,2.09,0,0,0,1,.68,1.31,1.31,0,0,0,1.79-1.17l1-5.06a3.37,3.37,0,0,1,4-3.3,4.51,4.51,0,0,1,2.49.7,3.32,3.32,0,0,1,1.25,2.07,16,16,0,0,1,.25,3.88,20,20,0,0,1-.33,3.1,5.53,5.53,0,0,1-.77,2,2.88,2.88,0,0,1-1.32,1.06,5,5,0,0,1-2,.26,3.73,3.73,0,0,1-1.49-.32,2.87,2.87,0,0,1-1-.88,7.56,7.56,0,0,1-.87-1.53l-.86-1.71.43-1.08,1,1.41a6.24,6.24,0,0,0,.79,1,2.74,2.74,0,0,0,.84.59,3,3,0,0,0,1.1.22,2.42,2.42,0,0,0,1.47-.31,2,2,0,0,0,.73-1.26,13.49,13.49,0,0,0,.28-2.57,12.72,12.72,0,0,0-.1-2.56,2,2,0,0,0-.65-1.3,2.37,2.37,0,0,0-1.42-.42,2.45,2.45,0,0,0-1.07.14,1.22,1.22,0,0,0-.58.67,6.27,6.27,0,0,0-.39,1.47l-.86,4.87a2.42,2.42,0,0,1-.61,1.36,2.29,2.29,0,0,1-1.09.68,2.93,2.93,0,0,1-1.25.07,3,3,0,0,1-1.15-.47A2.17,2.17,0,0,1,204.18,110.6Z" transform="translate(-8.3)"/><path class="cls-1" d="M97.1,12.24q2.49,8-7.86,11.21T76.49,18.63q-2.47-8,7.83-11.16T97.1,12.24Zm-5.31,1.62a3.53,3.53,0,0,0-1.43-2.15q-1.47-.8-4.66.19c-2.08.65-3.38,1.45-3.89,2.42a3.42,3.42,0,0,0,0,2.65,3.45,3.45,0,0,0,1.53,2.2q1.46.76,4.49-.18,3.19-1,4-2.44A3.46,3.46,0,0,0,91.79,13.86Z" transform="translate(-8.3)"/><path class="cls-1" d="M59.45,17.09a16.83,16.83,0,0,0-4.28,3.22l-2-3.63a2.75,2.75,0,0,0-3.76-1h0A2.76,2.76,0,0,0,48.3,19.4l8.41,15a2.77,2.77,0,0,0,3.77,1l2.42-1.36-.23-.4a17.2,17.2,0,0,0,4.94-2Q77.06,26.4,73,19.08C70.23,14.24,65.73,13.56,59.45,17.09Zm9.2,7.32q-.47,1.59-3.37,3.23c-1.85,1-3.31,1.41-4.36,1.11a3.5,3.5,0,0,1-2-1.83,3.44,3.44,0,0,1-.53-2.6c.29-1.06,1.4-2.11,3.3-3.18s3.44-1.49,4.51-1.16a3.54,3.54,0,0,1,1.85,1.81A3.48,3.48,0,0,1,68.65,24.41Z" transform="translate(-8.3)"/><path class="cls-1" d="M166.53,32q-4.58,7-13.65,1.11t-4.44-12.89q4.55-7,13.59-1.1T166.53,32Zm-4.65-3a3.47,3.47,0,0,0,.74-2.47c-.21-1.1-1.25-2.25-3.12-3.47s-3.27-1.67-4.35-1.44a3.43,3.43,0,0,0-2.05,1.67,3.47,3.47,0,0,0-.72,2.58c.23,1.08,1.24,2.19,3,3.35s3.34,1.71,4.42,1.49A3.4,3.4,0,0,0,161.88,28.92Z" transform="translate(-8.3)"/><path class="cls-1" d="M143.6,25h0a2.92,2.92,0,0,1-3.68,1.85l-2.68-1a4.91,4.91,0,0,1-2.51-6.46l2.55-6.61-.81-.32A2.93,2.93,0,0,1,135,8.61h0a2.93,2.93,0,0,1,3.69-1.84l.81.32L140,5.83A2.91,2.91,0,0,1,143.64,4h0a2.91,2.91,0,0,1,1.49,3.84l-4.88,12.65,1.86.71A2.92,2.92,0,0,1,143.6,25Z" transform="translate(-8.3)"/><path class="cls-1" d="M131.34,3.25Q131,6,127.41,5.62c-2.42-.28-3.53-1.35-3.31-3.2s1.53-2.65,4-2.36S131.55,1.4,131.34,3.25Z" transform="translate(-8.3)"/><path class="cls-1" d="M127.32,6.28h0a2.76,2.76,0,0,0-3.08,2.41L123,19.61a2.75,2.75,0,0,0,2.44,3h0a2.75,2.75,0,0,0,3.07-2.4l1.27-10.93A2.76,2.76,0,0,0,127.32,6.28Z" transform="translate(-8.3)"/><path class="cls-1" d="M119.41,8.31v10a2.76,2.76,0,0,1-2.77,2.75h0a2.75,2.75,0,0,1-2.76-2.77l.05-8.46L105.86,12v6.34a2.77,2.77,0,0,1-2.77,2.76h0a2.77,2.77,0,0,1-2.77-2.76v-11a2.76,2.76,0,0,1,2.77-2.75h2.77v2l8-1.95h1.73A3.8,3.8,0,0,1,119.41,8.31Z" transform="translate(-8.3)"/><path class="cls-2" d="M133.21,152.65H64.68a6,6,0,0,1,0-12h68.53a12.94,12.94,0,1,0,0-25.87H116.66a14.25,14.25,0,0,1,0-28.49h2.55a10.55,10.55,0,1,0,0-21.1h-40L90.42,76.44a6,6,0,1,1-8.49,8.48L67.55,70.54a10.16,10.16,0,0,1,7.19-17.35h44.47a22.55,22.55,0,1,1,0,45.1h-2.55a2.25,2.25,0,0,0,0,4.49h16.55a24.94,24.94,0,1,1,0,49.87Z" transform="translate(-8.3)"/><path class="cls-1" d="M75.31,112.49c-2.94-17.34-24.35-9.74-13,10.25,2.26,4,4.17,8.71,7.84,11.38,6,4.34,9-.93,12.55-4.55C103.66,108.06,83.63,99.65,75.31,112.49Z" transform="translate(-8.3)"/></g></g></svg>