<svg xmlns="http://www.w3.org/2000/svg" viewBox="0 0 99.47 99.47"><defs><style>.cls-1{fill:#aad9d4;}.cls-2{fill:#f2b4ae;}</style></defs><title>Favicon</title><g id="Layer_2" data-name="Layer 2"><g id="Layer_1-2" data-name="Layer 1"><path class="cls-1" d="M74.53,99.47H6a6,6,0,0,1,0-12H74.53a12.94,12.94,0,0,0,0-25.88H58a14.24,14.24,0,1,1,0-28.48h2.55a10.56,10.56,0,0,0,0-21.11h-40L31.73,23.25a6,6,0,1,1-8.48,8.49L8.87,17.35A10.16,10.16,0,0,1,16.05,0H60.53a22.56,22.56,0,0,1,0,45.11H58a2.24,2.24,0,1,0,0,4.48H74.53a24.94,24.94,0,0,1,0,49.88Z"/><path class="cls-2" d="M16.63,59.31C13.68,42-7.73,49.56,3.6,69.55c2.25,4,4.16,8.72,7.84,11.38,6,4.35,9-.93,12.54-4.54C45,54.88,24.94,46.47,16.63,59.31Z"/></g></g></svg>