<svg xmlns="http://www.w3.org/2000/svg" viewBox="0 0 364.79 99.47"><defs><style>.cls-1{fill:#aad9d4;}.cls-2{fill:#f2b4ae;}</style></defs><title>Full Logo</title><g id="Layer_2" data-name="Layer 2"><g id="Layer_1-2" data-name="Layer 1"><path class="cls-1" d="M125.26,69.88V71.6h-8.42V70l2.38-.13ZM122.72,64h1l1.31,0c.44,0,.82.07,1.15.12l-.18,1.61h-2.56a2.39,2.39,0,0,0-1.72.49,2.14,2.14,0,0,0-.5,1.61V82.34h-2.18V67.66a4.88,4.88,0,0,1,.36-2,2.61,2.61,0,0,1,1.15-1.24A4.56,4.56,0,0,1,122.72,64Z"/><path class="cls-1" d="M129.53,69.88l.28,2.38.2.38v9.7h-2.17V69.88Zm6.11-.3-.26,2h-.71a5.73,5.73,0,0,0-2.2.45c-.74.3-1.63.72-2.69,1.26L129.6,72a13.18,13.18,0,0,1,2.78-1.77,6.54,6.54,0,0,1,2.7-.63Z"/><path class="cls-1" d="M143,69.58a7.92,7.92,0,0,1,3.44.63,3.75,3.75,0,0,1,1.85,2.09,13.12,13.12,0,0,1,0,7.65A3.73,3.73,0,0,1,146.47,82a7.76,7.76,0,0,1-3.44.64,7.65,7.65,0,0,1-3.41-.64A3.8,3.8,0,0,1,137.75,80a12.9,12.9,0,0,1,0-7.65,3.82,3.82,0,0,1,1.87-2.09A7.8,7.8,0,0,1,143,69.58Zm0,1.84a4.5,4.5,0,0,0-2.13.42,2.35,2.35,0,0,0-1.12,1.44,12.39,12.39,0,0,0,0,5.68,2.4,2.4,0,0,0,1.12,1.45,4.5,4.5,0,0,0,2.13.42,4.64,4.64,0,0,0,2.15-.42A2.4,2.4,0,0,0,146.3,79a12,12,0,0,0,0-5.68,2.35,2.35,0,0,0-1.12-1.44A4.64,4.64,0,0,0,143,71.42Z"/><path class="cls-1" d="M154.08,69.88l.15,2.38.23.38v9.7h-2.17V69.88Zm5.21-.3a3.25,3.25,0,0,1,2.43.85,3.54,3.54,0,0,1,.87,2.57v9.34H160.5V73.62a2.41,2.41,0,0,0-.49-1.7,1.92,1.92,0,0,0-1.46-.5,4,4,0,0,0-1.24.2,6.62,6.62,0,0,0-1.33.67c-.48.3-1.08.71-1.77,1.22L154.05,72a11.27,11.27,0,0,1,2.64-1.8A6.06,6.06,0,0,1,159.29,69.58Zm8.16,0a3.34,3.34,0,0,1,2.47.86,3.52,3.52,0,0,1,.86,2.56v9.34h-2.15V73.62a2.74,2.74,0,0,0-.46-1.68,1.82,1.82,0,0,0-1.48-.52,3.8,3.8,0,0,0-1.27.21,7.58,7.58,0,0,0-1.32.68q-.71.47-1.74,1.2L162.24,72a11.23,11.23,0,0,1,2.63-1.8A6,6,0,0,1,167.45,69.58Z"/><path class="cls-1" d="M187,69.88V71.6h-8.39V70l2.45-.13Zm-4-3.68V78.91a1.75,1.75,0,0,0,.39,1.28,1.82,1.82,0,0,0,1.3.38h1.89l.26,1.66a8.53,8.53,0,0,1-.95.18l-1,.12-.82,0a3.1,3.1,0,0,1-2.38-.87,3.51,3.51,0,0,1-.82-2.51v-13Z"/><path class="cls-1" d="M191.85,64.43l0,4.94c0,.56,0,1.09-.07,1.59a8.59,8.59,0,0,1-.19,1.3l.23.38v9.7h-2.17V64.43Zm5.4,5.15q3.38,0,3.37,3.42v9.34h-2.2V73.62a2.82,2.82,0,0,0-.39-1.73,1.7,1.7,0,0,0-1.37-.47,5.51,5.51,0,0,0-2.3.53,24.41,24.41,0,0,0-2.74,1.56l-.1-1.56a15.09,15.09,0,0,1,2.89-1.74A7,7,0,0,1,197.25,69.58Z"/><path class="cls-1" d="M209.65,69.58a6.5,6.5,0,0,1,4.08,1,3.69,3.69,0,0,1,1.27,3,4.16,4.16,0,0,1-.69,2.6,2.7,2.7,0,0,1-2.28.93h-7.26V75.48h6.7a1.08,1.08,0,0,0,1.1-.57,3.13,3.13,0,0,0,.25-1.27,2,2,0,0,0-.71-1.71,4.1,4.1,0,0,0-2.36-.51,4.82,4.82,0,0,0-2.13.39,2.25,2.25,0,0,0-1.1,1.38,9.44,9.44,0,0,0-.32,2.75,8.9,8.9,0,0,0,.4,3,2.38,2.38,0,0,0,1.26,1.43,5.9,5.9,0,0,0,2.3.38q1,0,2.19-.09c.79-.06,1.5-.13,2.14-.21l.23,1.45a8.1,8.1,0,0,1-1.45.39c-.57.1-1.16.18-1.76.23s-1.15.07-1.63.07a7.69,7.69,0,0,1-3.45-.65,3.91,3.91,0,0,1-1.91-2.1,10.09,10.09,0,0,1-.6-3.82,10.12,10.12,0,0,1,.6-3.87,3.75,3.75,0,0,1,1.87-2A7.66,7.66,0,0,1,209.65,69.58Z"/><path class="cls-1" d="M226.17,64.43l0,14.48a1.64,1.64,0,0,0,.44,1.24,1.79,1.79,0,0,0,1.27.42h1.2l.26,1.66a2.92,2.92,0,0,1-.65.18q-.43.07-.87.12c-.3,0-.55,0-.76,0a3,3,0,0,1-2.21-.82A3.18,3.18,0,0,1,224,79.4v-15Z"/><path class="cls-1" d="M233.26,64.59a.58.58,0,0,1,.66.66v1.46a.59.59,0,0,1-.66.67h-1a.59.59,0,0,1-.66-.67V65.25a.58.58,0,0,1,.66-.66Zm.56,5.29V82.34h-2.15V69.88Z"/><path class="cls-1" d="M245,69.88V71.6h-8.38V70l2.45-.13Zm-4-3.68V78.91a1.8,1.8,0,0,0,.38,1.28,1.86,1.86,0,0,0,1.31.38h1.89l.26,1.66a9,9,0,0,1-1,.18l-1,.12c-.34,0-.61,0-.82,0a3.08,3.08,0,0,1-2.37-.87,3.51,3.51,0,0,1-.82-2.51v-13Z"/><path class="cls-1" d="M254.74,69.88V71.6h-8.39V70l2.46-.13Zm-4-3.68V78.91a1.75,1.75,0,0,0,.38,1.28,1.82,1.82,0,0,0,1.3.38h1.9l.25,1.66a8.53,8.53,0,0,1-1,.18l-1,.12-.82,0a3.1,3.1,0,0,1-2.38-.87,3.51,3.51,0,0,1-.82-2.51v-13Z"/><path class="cls-1" d="M259.6,64.43l0,14.48a1.61,1.61,0,0,0,.45,1.24,1.79,1.79,0,0,0,1.27.42h1.2l.25,1.66a2.77,2.77,0,0,1-.65.18q-.42.07-.87.12c-.3,0-.55,0-.75,0a3,3,0,0,1-2.21-.82,3.14,3.14,0,0,1-.84-2.35v-15Z"/><path class="cls-1" d="M270.11,69.58a6.52,6.52,0,0,1,4.08,1,3.69,3.69,0,0,1,1.26,3,4,4,0,0,1-.69,2.6,2.67,2.67,0,0,1-2.27.93h-7.27V75.48h6.71a1.09,1.09,0,0,0,1.1-.57,3.13,3.13,0,0,0,.25-1.27,2.05,2.05,0,0,0-.71-1.71,4.13,4.13,0,0,0-2.36-.51,4.82,4.82,0,0,0-2.13.39,2.25,2.25,0,0,0-1.1,1.38,9.11,9.11,0,0,0-.32,2.75,9.2,9.2,0,0,0,.39,3,2.42,2.42,0,0,0,1.27,1.43,5.9,5.9,0,0,0,2.3.38c.67,0,1.39,0,2.19-.09s1.5-.13,2.13-.21l.23,1.45a7.75,7.75,0,0,1-1.44.39c-.57.1-1.16.18-1.77.23s-1.14.07-1.62.07a7.69,7.69,0,0,1-3.45-.65,3.91,3.91,0,0,1-1.91-2.1,10.09,10.09,0,0,1-.6-3.82,10.12,10.12,0,0,1,.6-3.87,3.72,3.72,0,0,1,1.87-2A7.62,7.62,0,0,1,270.11,69.58Z"/><path class="cls-1" d="M282.87,69.58c.55,0,1.13,0,1.74,0s1.22.07,1.83.12,1.16.12,1.67.21l-.17,1.58-2.37-.08c-.79,0-1.58,0-2.37,0a13.64,13.64,0,0,0-1.81,0,1.43,1.43,0,0,0-1,.41,1.65,1.65,0,0,0-.3,1.12,1.46,1.46,0,0,0,.46,1.28,4,4,0,0,0,1.36.51l3.63.82a4.42,4.42,0,0,1,2.19,1.1,3.3,3.3,0,0,1,.7,2.33,3.84,3.84,0,0,1-.57,2.3,2.87,2.87,0,0,1-1.76,1,14.42,14.42,0,0,1-3,.26c-.44,0-1.1,0-2-.05a25.46,25.46,0,0,1-2.9-.31l.15-1.59,1.31.07c.46,0,.94,0,1.44,0h1.55a15.39,15.39,0,0,0,2.2-.13,1.86,1.86,0,0,0,1.12-.5,1.64,1.64,0,0,0,.33-1.11,1.28,1.28,0,0,0-.53-1.23,5.71,5.71,0,0,0-1.43-.51l-3.59-.82a5.06,5.06,0,0,1-1.63-.68,2.47,2.47,0,0,1-.9-1.1A4.61,4.61,0,0,1,278,73a3.91,3.91,0,0,1,.51-2.2,2.55,2.55,0,0,1,1.59-1A11.36,11.36,0,0,1,282.87,69.58Z"/><path class="cls-1" d="M298.8,69.88V71.6h-8.39V70l2.46-.13Zm-4-3.68V78.91a1.8,1.8,0,0,0,.38,1.28,1.85,1.85,0,0,0,1.31.38h1.89l.26,1.66a9,9,0,0,1-.95.18l-1.05.12c-.34,0-.61,0-.82,0a3.12,3.12,0,0,1-2.38-.87,3.56,3.56,0,0,1-.81-2.51v-13Z"/><path class="cls-1" d="M313.79,69.88V71.6H305.4V70l2.46-.13Zm-4-3.68V78.91a1.75,1.75,0,0,0,.38,1.28,1.84,1.84,0,0,0,1.3.38h1.9l.25,1.66a8.78,8.78,0,0,1-.94.18l-1.05.12-.82,0a3.12,3.12,0,0,1-2.38-.87,3.56,3.56,0,0,1-.82-2.51v-13Z"/><path class="cls-1" d="M318.62,64.43l0,4.94q0,.84-.06,1.59a10,10,0,0,1-.2,1.3l.23.38v9.7h-2.17V64.43Zm5.4,5.15q3.38,0,3.38,3.42v9.34h-2.2V73.62a2.74,2.74,0,0,0-.4-1.73,1.68,1.68,0,0,0-1.37-.47,5.54,5.54,0,0,0-2.3.53,24.41,24.41,0,0,0-2.74,1.56l-.1-1.56a15.4,15.4,0,0,1,2.89-1.74A7,7,0,0,1,324,69.58Z"/><path class="cls-1" d="M333,64.59a.58.58,0,0,1,.66.66v1.46a.59.59,0,0,1-.66.67h-1a.59.59,0,0,1-.66-.67V65.25a.58.58,0,0,1,.66-.66Zm.56,5.29V82.34h-2.15V69.88Z"/><path class="cls-1" d="M339.49,69.88l.18,2.38.15.38v9.7h-2.17V69.88Zm5.73-.3q3.38,0,3.38,3.42v9.34h-2.18V73.62a2.67,2.67,0,0,0-.41-1.73,1.72,1.72,0,0,0-1.38-.47,5.16,5.16,0,0,0-2.3.56c-.77.37-1.68.89-2.74,1.53l-.1-1.56a14,14,0,0,1,2.89-1.75A7,7,0,0,1,345.22,69.58Z"/><path class="cls-1" d="M353.92,76.69l1.25.17a1.91,1.91,0,0,0-.59.94,1.19,1.19,0,0,0,1.13,1.6l4.65.74a3.73,3.73,0,0,1,2.46,1.1,3.69,3.69,0,0,1,.69,2.4,4.23,4.23,0,0,1-.55,2.3,3.07,3.07,0,0,1-1.86,1.21,14.29,14.29,0,0,1-3.53.35,17.31,17.31,0,0,1-2.83-.19,5,5,0,0,1-1.86-.64,2.57,2.57,0,0,1-1-1.16,4.67,4.67,0,0,1-.31-1.79,3.26,3.26,0,0,1,.25-1.37,2.61,2.61,0,0,1,.76-1,6.77,6.77,0,0,1,1.37-.85l1.54-.84,1,.36-1.25.94a6.71,6.71,0,0,0-.86.76,2.43,2.43,0,0,0-.51.79,2.78,2.78,0,0,0-.16,1,2.27,2.27,0,0,0,.33,1.33,1.83,1.83,0,0,0,1.18.63,13,13,0,0,0,2.35.16,11.77,11.77,0,0,0,2.34-.18,1.84,1.84,0,0,0,1.16-.64,2.19,2.19,0,0,0,.33-1.3,2.24,2.24,0,0,0-.16-1,1.11,1.11,0,0,0-.63-.51,6.18,6.18,0,0,0-1.35-.31l-4.48-.62a2.26,2.26,0,0,1-1.27-.51,2.12,2.12,0,0,1-.65-1,2.58,2.58,0,0,1-.1-1.14,2.75,2.75,0,0,1,.38-1.07A2.05,2.05,0,0,1,353.92,76.69Zm3.53-7.11a9.85,9.85,0,0,1,3.15.4,3,3,0,0,1,1.67,1.28,5.36,5.36,0,0,1,0,4.52,3,3,0,0,1-1.68,1.3,12.14,12.14,0,0,1-6.33,0,3,3,0,0,1-1.66-1.29,4.45,4.45,0,0,1-.5-2.22,4.63,4.63,0,0,1,.5-2.29,2.94,2.94,0,0,1,1.68-1.3A10,10,0,0,1,357.45,69.58Zm0,1.66a4.71,4.71,0,0,0-2.6.52,2.54,2.54,0,0,0,0,3.54,6.55,6.55,0,0,0,5.21,0,2.56,2.56,0,0,0,0-3.54A4.68,4.68,0,0,0,357.42,71.24Zm6.8-1.36-.12,1.2-3.18.26L360,69.88Z"/><path class="cls-2" d="M215.53,41.6q0,18.19-23.53,18.2-23.35,0-23.35-18.2t23.44-18.12Q215.54,23.48,215.53,41.6Zm-12.07-.05c0-2.49-.52-4.29-1.58-5.39q-2.53-2.59-9.79-2.6-7.09,0-9.62,2.52-1.75,1.74-1.75,5.47t1.75,5.56q2.53,2.52,9.44,2.52,7.26,0,9.8-2.52Q203.46,45.46,203.46,41.55Z"/><path class="cls-2" d="M139.71,23.47A37.19,37.19,0,0,0,128.18,25V16a6,6,0,0,0-6-6h0a6,6,0,0,0-6,6V53.3a6,6,0,0,0,6,6h6v-1a37.36,37.36,0,0,0,11.44,1.51q23.53,0,23.52-18.21T139.71,23.47Zm9.62,23.63c-1.7,1.69-5,2.54-9.8,2.54q-6.93,0-9.44-2.54c-1.19-1.14-1.76-3-1.76-5.54s.57-4.31,1.76-5.49c1.67-1.69,4.89-2.5,9.62-2.5s8.1.84,9.77,2.59c1.07,1.12,1.58,2.89,1.58,5.4S150.49,46,149.33,47.1Z"/><path class="cls-2" d="M282.12,15.94q0,6.09-7.87,6.09t-8-6.09q0-6.07,8-6.08T282.12,15.94Z"/><path class="cls-2" d="M364.79,41.6q0,18.19-23.53,18.2-23.36,0-23.36-18.2t23.44-18.12Q364.79,23.48,364.79,41.6Zm-12.07-.05q0-3.73-1.58-5.39-2.53-2.59-9.8-2.6-7.08,0-9.62,2.52Q330,37.82,330,41.55t1.75,5.56q2.53,2.52,9.45,2.52,7.26,0,9.8-2.52C352.13,46,352.72,44.16,352.72,41.55Z"/><path class="cls-2" d="M313.27,52.67h0c0,3.65-2.7,6.62-6,6.62H301c-5.6,0-10.14-5-10.14-11.13V32.76H289c-3.32,0-6-3-6-6.61h0c0-3.66,2.7-6.62,6-6.62h1.9V16.61c0-3.65,2.7-6.61,6-6.61h0c3.32,0,6,3,6,6.61V46.06h4.33C310.57,46.06,313.27,49,313.27,52.67Z"/><path class="cls-2" d="M274.2,23.48h0a6,6,0,0,0-6,6V53.32a6,6,0,0,0,6,6h0a6,6,0,0,0,6-6V29.44A6,6,0,0,0,274.2,23.48Z"/><path class="cls-2" d="M262.5,31.55V53.32a6,6,0,0,1-6,6h0a6,6,0,0,1-6-6l.12-18.39-17.51,4.65V53.3a6,6,0,0,1-6,6h0a6,6,0,0,1-6-6v-24a6,6,0,0,1,6-6h6v4.25l17.36-4.25h3.76A8.26,8.26,0,0,1,262.5,31.55Z"/><path class="cls-1" d="M74.53,99.47H6a6,6,0,0,1,0-12H74.53a12.94,12.94,0,0,0,0-25.88H58a14.24,14.24,0,1,1,0-28.48h2.55a10.56,10.56,0,0,0,0-21.11h-40L31.73,23.25a6,6,0,1,1-8.48,8.49L8.87,17.35A10.16,10.16,0,0,1,16.05,0H60.53a22.56,22.56,0,0,1,0,45.11H58a2.24,2.24,0,1,0,0,4.48H74.53a24.94,24.94,0,0,1,0,49.88Z"/><path class="cls-2" d="M16.63,59.31C13.68,42-7.73,49.56,3.6,69.55c2.25,4,4.16,8.72,7.84,11.38,6,4.35,9-.93,12.54-4.54C45,54.88,24.94,46.47,16.63,59.31Z"/></g></g></svg>