<svg xmlns="http://www.w3.org/2000/svg" viewBox="0 0 99.47 130.22"><defs><style>.cls-1{fill:#aad9d4;}.cls-2{fill:#f2b4ae;}</style></defs><title>Short Version</title><g id="Layer_2" data-name="Layer 2"><g id="Layer_1-2" data-name="Layer 1"><path class="cls-1" d="M74.53,99.47H6a6,6,0,0,1,0-12H74.53a12.94,12.94,0,0,0,0-25.88H58a14.24,14.24,0,1,1,0-28.48h2.55a10.56,10.56,0,0,0,0-21.11h-40L31.73,23.25a6,6,0,1,1-8.48,8.49L8.87,17.35A10.16,10.16,0,0,1,16.05,0H60.53a22.56,22.56,0,0,1,0,45.11H58a2.24,2.24,0,1,0,0,4.48H74.53a24.94,24.94,0,0,1,0,49.88Z"/><path class="cls-2" d="M16.63,59.31C13.68,42-7.73,49.56,3.6,69.55c2.25,4,4.16,8.72,7.84,11.38,6,4.35,9-.93,12.54-4.54C45,54.88,24.94,46.47,16.63,59.31Z"/><path class="cls-1" d="M39.76,122.93q0,7.29-9.41,7.29T21,122.93q0-7.25,9.38-7.24T39.76,122.93Zm-4.82,0a3.06,3.06,0,0,0-.63-2.16c-.68-.69-2-1-3.92-1s-3.18.33-3.85,1a3,3,0,0,0-.7,2.19,3,3,0,0,0,.7,2.22c.67.67,1.93,1,3.78,1s3.24-.34,3.92-1A3,3,0,0,0,34.94,122.92Z"/><path class="cls-1" d="M9.43,115.68a14.91,14.91,0,0,0-4.61.62v-3.61a2.4,2.4,0,0,0-2.41-2.4h0A2.4,2.4,0,0,0,0,112.69v14.93A2.4,2.4,0,0,0,2.41,130H4.82v-.4a15,15,0,0,0,4.58.61q9.42,0,9.41-7.29C18.81,118.11,15.69,115.68,9.43,115.68Zm3.85,9.46c-.68.67-2,1-3.92,1s-3.11-.34-3.77-1a3.79,3.79,0,0,1,0-4.42c.66-.67,2-1,3.84-1s3.25.34,3.91,1a3,3,0,0,1,.64,2.16A2.94,2.94,0,0,1,13.28,125.14Z"/><path class="cls-1" d="M66.4,112.67c0,1.63-1.05,2.44-3.15,2.44s-3.18-.81-3.18-2.44,1.06-2.43,3.18-2.43S66.4,111.05,66.4,112.67Z"/><path class="cls-1" d="M99.47,122.93q0,7.29-9.41,7.29t-9.34-7.29q0-7.25,9.37-7.24T99.47,122.93Zm-4.83,0a3.06,3.06,0,0,0-.63-2.16c-.68-.69-2-1-3.92-1s-3.17.33-3.85,1a3,3,0,0,0-.7,2.19,3,3,0,0,0,.7,2.22c.68.67,1.94,1,3.78,1s3.24-.34,3.92-1A2.94,2.94,0,0,0,94.64,122.92Z"/><path class="cls-1" d="M78.86,127.36h0A2.54,2.54,0,0,1,76.45,130H74a4.27,4.27,0,0,1-4.06-4.45V119.4h-.76a2.54,2.54,0,0,1-2.41-2.65h0a2.53,2.53,0,0,1,2.41-2.64h.76v-1.17a2.53,2.53,0,0,1,2.41-2.64h0a2.53,2.53,0,0,1,2.41,2.64v11.78h1.73A2.53,2.53,0,0,1,78.86,127.36Z"/><path class="cls-1" d="M63.23,115.69h0a2.39,2.39,0,0,0-2.41,2.38v9.55A2.4,2.4,0,0,0,63.23,130h0a2.4,2.4,0,0,0,2.41-2.39v-9.55A2.39,2.39,0,0,0,63.23,115.69Z"/><path class="cls-1" d="M58.55,118.91v8.71a2.39,2.39,0,0,1-2.4,2.39h0a2.39,2.39,0,0,1-2.4-2.4l0-7.36-7,1.86v5.51A2.4,2.4,0,0,1,44.38,130h0A2.4,2.4,0,0,1,42,127.62V118a2.4,2.4,0,0,1,2.41-2.4h2.41v1.7l6.94-1.7h1.51A3.3,3.3,0,0,1,58.55,118.91Z"/></g></g></svg>